#!OML:ASF H:\Punching\Project 1\Capture day 1\Session 1\female.ASF
:FULLY-SPECIFIED
:DEGREES
2385
root -0.314921 14.8703 -3.52135 15.9116 -33.9438 -5.97892
lowerback -4.83101 0.415928 6.58681
upperback -7.18434 0.400018 1.14163
thorax -4.74055 -0.136155 -2.48928
lowerneck -2.77998 13.6 19.2558
upperneck 25.2365 23.2106 -22.3825
head 14.394 10.4433 -8.4941
rclavicle -5.94708e-014 -1.86361e-014
rhumerus 16.4465 37.3453 -75.2279
rradius 126.599
rwrist -10.7248
rhand -31.1623 4.82878
rfingers 7.12502
rthumb -4.43987 -25.1047
lclavicle -5.94708e-014 -1.86361e-014
lhumerus 0.709662 -1.64112 57.4681
lradius 141.124
lwrist 1.80146
lhand -29.8365 2.80492
lfingers 7.12502
lthumb -3.15955 32.7613
rfemur -8.86553 5.30503 19.7959
rtibia 29.6643
rfoot -30.2523 -23.8897
rtoes -3.79066
lfemur -40.3647 4.50442 0.601687
ltibia 41.6071
lfoot -12.7421 23.3079
ltoes 17.5251
2386
root -0.319076 14.8715 -3.52194 15.9405 -33.4585 -5.91757
lowerback -4.88507 0.374677 6.64429
upperback -7.25348 0.341091 1.10129
thorax -4.78997 -0.172794 -2.56329
lowerneck -2.854 13.5543 19.1955
upperneck 25.3921 23.1214 -22.2177
head 14.4116 10.4018 -8.4381
rclavicle 3.50358e-014 1.56294e-014
rhumerus 16.4143 37.2855 -75.209
rradius 126.588
rwrist -10.6942
rhand -31.2129 4.9117
rfingers 7.12502
rthumb -4.48872 -25.0207
lclavicle 3.50358e-014 1.56294e-014
lhumerus 0.645282 -1.65267 57.4053
lradius 141.09
lwrist 1.7569
lhand -29.7568 3.07158
lfingers 7.12502
lthumb -3.08258 33.029
rfemur -8.75223 5.10072 19.899
rtibia 29.5008
rfoot -30.2516 -24.1681
rtoes -3.82047
lfemur -40.967 5.10278 0.32544
ltibia 42.0057
lfoot -12.0112 22.5204
ltoes 17.1924
2387
root -0.323247 14.8716 -3.52152 15.974 -32.9211 -5.83986
lowerback -4.9401 0.32682 6.68434
upperback -7.327 0.273589 1.05475
thorax -4.84441 -0.213306 -2.63413
lowerneck -2.97933 13.508 19.1245
upperneck 25.5806 23.0232 -22.0224
head 14.4456 10.3532 -8.3676
rclavicle 3.30775e-014 7.52897e-015
rhumerus 16.4031 37.1959 -75.1671
rradius 126.583
rwrist -10.6445
rhand -31.2591 4.99044
rfingers 7.12502
rthumb -4.53336 -24.9411
lclavicle 3.30775e-014 7.52897e-015
lhumerus 0.575005 -1.66122 57.3442
lradius 141.092
lwrist 1.74986
lhand -29.6649 3.33049
lfingers 7.12502
lthumb -2.99389 33.2892
rfemur -8.64785 4.90976 20.0028
rtibia 29.3546
rfoot -30.2843 -24.4981
rtoes -3.8238
lfemur -41.6567 5.73129 0.0137658
ltibia 42.4663
lfoot -11.1817 21.6515
ltoes 16.8692
2388
root -0.327285 14.8704 -3.51967 16.0199 -32.3262 -5.76779
lowerback -4.99582 0.273086 6.72708
upperback -7.40231 0.198297 1.00885
thorax -4.9015 -0.257981 -2.70587
lowerneck -3.14695 13.4594 19.0418
upperneck 25.7891 22.914 -21.8036
head 14.489 10.2971 -8.28569
rclavicle -4.9471e-015 -1.963e-014
rhumerus 16.4078 37.0892 -75.108
rradius 126.581
rwrist -10.5726
rhand -31.3093 5.06733
rfingers 7.12502
rthumb -4.58182 -24.8631
lclavicle -4.9471e-015 -1.963e-014
lhumerus 0.5095 -1.66038 57.2847
lradius 141.122
lwrist 1.80185
lhand -29.5633 3.56322
lfingers 7.12502
lthumb -2.89575 33.5233
rfemur -8.54126 4.74183 20.1294
rtibia 29.217
rfoot -30.3517 -24.8881
rtoes -3.79228
lfemur -42.4355 6.36542 -0.307867
ltibia 42.9983
lfoot -10.2503 20.7234
ltoes 16.4807
2389
root -0.330971 14.8674 -3.51576 16.0798 -31.6746 -5.71798
lowerback -5.05219 0.215366 6.79084
upperback -7.47558 0.117431 0.967308
thorax -4.95732 -0.306339 -2.78486
lowerneck -3.34201 13.4084 18.9516
upperneck 26.0018 22.7944 -21.5701
head 14.5341 10.2352 -8.19672
rclavicle -4.55322e-015 7.12985e-015
rhumerus 16.423 36.9683 -75.0374
rradius 126.596
rwrist -10.5158
rhand -31.3478 5.11052
rfingers 7.12502
rthumb -4.61895 -24.8191
lclavicle -4.55322e-015 7.12985e-015
lhumerus 0.448196 -1.65587 57.2216
lradius 141.179
lwrist 1.91648
lhand -29.4716 3.81265
lfingers 7.12502
lthumb -2.80715 33.7739
rfemur -8.41885 4.6005 20.2936
rtibia 29.077
rfoot -30.4464 -25.3427
rtoes -3.72975
lfemur -43.2955 6.98691 -0.621451
ltibia 43.6066
lfoot -9.22725 19.7505
ltoes 15.9463
2390
root -0.334185 14.8621 -3.50945 16.1592 -30.9809 -5.72381
lowerback -5.10055 0.167862 6.90524
upperback -7.54411 0.0503253 0.936375
thorax -5.0125 -0.350043 -2.88096
lowerneck -3.55737 13.3467 18.8494
upperneck 26.2137 22.6548 -21.3297
head 14.5752 10.1632 -8.10592
rclavicle 3.96358e-014 -6.33626e-015
rhumerus 16.4391 36.8353 -74.9595
rradius 126.615
rwrist -10.4644
rhand -31.411 5.1768
rfingers 7.12502
rthumb -4.68004 -24.7515
lclavicle 3.96358e-014 -6.33626e-015
lhumerus 0.394299 -1.66068 57.1683
lradius 141.254
lwrist 2.09673
lhand -29.3986 4.05798
lfingers 7.12502
lthumb -2.73663 34.0202
rfemur -8.26561 4.51692 20.5256
rtibia 28.923
rfoot -30.5693 -25.8651
rtoes -3.61166
lfemur -44.2165 7.59533 -0.894027
ltibia 44.2891
lfoot -8.13425 18.7453
ltoes 15.2303
